<?xml version="1.0" encoding="utf-8"?><svg viewBox="0 0 185 48" xmlns="http://www.w3.org/2000/svg" xmlns:xlink="http://www.w3.org/1999/xlink"><style>:root>svg{display:none}:root>svg:target{display:block}</style><svg fill="none" viewBox="0 0 185 48" id="logo" xmlns="http://www.w3.org/2000/svg"><g opacity=".3" fill="#333"><path d="M62.778 34.176l-3.072 5.697c-.243.454-.53.793-.859 1.016-.329.224-.688.336-1.076.336-.303 0-.613-.069-.928-.207l.256-.79c.244.085.461.128.652.128.434 0 .793-.23 1.076-.69l.158-.248-2.784-5.242h1.056L59.5 38.56l2.3-4.383h.979zM68.108 37.503c.467.112.82.313 1.056.602.244.283.366.649.366 1.096 0 .6-.22 1.063-.662 1.392-.434.33-1.07.494-1.906.494h-3.16v-6.91h2.973c.757 0 1.346.154 1.767.463.428.303.642.74.642 1.313 0 .375-.095.695-.286.958a1.66 1.66 0 01-.79.592zm-3.328-.286h1.925c.481 0 .847-.096 1.097-.286.256-.191.385-.471.385-.84 0-.368-.129-.648-.385-.839-.257-.197-.622-.296-1.097-.296H64.78v2.26zm2.163 3.09c1.06 0 1.59-.395 1.59-1.185 0-.395-.136-.684-.405-.868-.264-.191-.659-.287-1.185-.287H64.78v2.34h2.163zM76.196 40.228v.859H71.18v-6.91h4.878v.858h-3.89v2.123h3.466v.839h-3.467v2.231h4.03zM83.396 34.176v6.91h-.968v-6.05h-3.061l-.07 2.023c-.032.954-.111 1.728-.236 2.32-.119.592-.31 1.04-.573 1.343-.263.296-.619.444-1.067.444-.204 0-.411-.026-.622-.08l.07-.878c.105.026.21.04.315.04.284 0 .51-.112.682-.336.17-.23.3-.573.385-1.027.085-.454.141-1.053.168-1.796l.108-2.913h4.869zM85.55 34.176h.977v5.331l4.088-5.33h.909v6.91h-.968v-5.321l-4.098 5.32h-.909v-6.91zM98.602 34.176v6.91h-.978v-2.734c-.73.283-1.406.425-2.025.425-.842 0-1.497-.204-1.965-.612-.46-.408-.691-.99-.691-1.748v-2.24h.968v2.132c0 .513.154.908.464 1.184.316.277.76.415 1.333.415.639 0 1.277-.145 1.916-.434v-3.298h.978zM105.774 40.228v.859h-5.016v-6.91h4.878v.858h-3.891v2.123h3.466v.839h-3.466v2.231h4.029zM113.27 34.176v6.91h-.987v-3.08h-3.97v3.08h-.988v-6.91h.988v2.972h3.97v-2.972h.987zM115.426 34.176h.978v5.331l4.088-5.33h.909v6.91h-.968v-5.321l-4.099 5.32h-.908v-6.91zM128.572 40.228v.859h-5.016v-6.91h4.878v.858h-3.891v2.123h3.467v.839h-3.467v2.231h4.029zM138.73 34.176v6.91h-.968v-6.05h-4.009v6.05h-.978v-6.91h5.955zM143.582 34.176c.895 0 1.6.214 2.113.642.514.428.77 1.017.77 1.767s-.256 1.34-.77 1.767c-.513.428-1.218.642-2.113.642h-1.709v2.093h-.987v-6.91h2.696zm-.03 3.959c.626 0 1.103-.132 1.432-.395.329-.27.494-.655.494-1.155s-.165-.882-.494-1.145c-.329-.27-.806-.405-1.432-.405h-1.679v3.1h1.679zM151.046 41.166c-.698 0-1.326-.151-1.886-.454a3.457 3.457 0 01-1.323-1.274 3.51 3.51 0 01-.474-1.806c0-.665.158-1.267.474-1.807.322-.54.763-.961 1.323-1.264.56-.31 1.188-.464 1.886-.464.692 0 1.317.155 1.877.464.559.303.997.724 1.313 1.264.316.533.474 1.135.474 1.806 0 .672-.158 1.277-.474 1.817a3.418 3.418 0 01-1.313 1.264 3.88 3.88 0 01-1.877.454zm0-.879c.507 0 .961-.115 1.363-.345.408-.23.728-.547.958-.948.237-.408.355-.862.355-1.362 0-.5-.118-.951-.355-1.353a2.478 2.478 0 00-.958-.958 2.69 2.69 0 00-1.363-.345c-.507 0-.968.115-1.382.345-.408.23-.731.55-.968.958-.23.401-.346.852-.346 1.352 0 .5.116.955.346 1.363.237.401.56.717.968.948.414.23.875.345 1.382.345zM162.7 40.228v2.37h-.918v-1.511h-5.688l-.01 1.51h-.918l.009-2.369h.336c.435-.026.741-.369.919-1.027.177-.665.286-1.6.325-2.803l.07-2.222h4.858v6.052h1.017zm-5.076-3.742c-.032.974-.111 1.78-.237 2.42-.118.638-.312 1.078-.582 1.322h3.901v-5.193h-3.032l-.05 1.451zM168.573 39.36h-3.674l-.76 1.727h-1.017l3.13-6.91h.978l3.14 6.91h-1.037l-.76-1.728zm-.346-.79l-1.491-3.387-1.491 3.386h2.982z"/><path d="M177.042 38.046h-1.314v3.04h-.967v-3.04h-1.324l-1.935 3.04h-1.156l2.282-3.593-2.114-3.317h1.057l1.847 3.001h1.343v-3h.967v3h1.324l1.856-3h1.057l-2.113 3.336 2.281 3.574h-1.156l-1.935-3.04z"/></g><path d="M70.32 29.881h-3.005v-3.983h-7.667v3.972h-3.094l-.178-6.686h1.08c.475-.437.85-1.142 1.124-2.113.274-.972.467-2.244.578-3.816l.456-7.553h9.314v13.482h1.68l-.289 6.697zm-9.348-6.697h4.696V12.427H62.73l-.267 4.46c-.185 2.678-.682 4.777-1.49 6.297zM83.439 19.257c0 2.173-.516 3.86-1.547 5.062-1.024 1.201-2.448 1.802-4.273 1.802-1.818 0-3.246-.593-4.284-1.78-1.039-1.194-1.566-2.863-1.58-5.006v-2.77c0-2.225.515-3.96 1.546-5.206 1.032-1.253 2.463-1.88 4.296-1.88 1.802 0 3.223.616 4.262 1.847 1.038 1.223 1.565 2.944 1.58 5.161v2.77zm-3.283-2.714c0-1.461-.208-2.547-.623-3.26-.416-.711-1.061-1.067-1.936-1.067-.868 0-1.51.345-1.925 1.034-.416.682-.631 1.725-.646 3.126v2.881c0 1.417.212 2.462.635 3.137.422.668 1.075 1.002 1.958 1.002.853 0 1.487-.327 1.903-.98.415-.66.627-1.68.634-3.058v-2.815zM90.06 9.702l3.06 11.714 3.049-11.714h4.273v16.197h-3.283v-4.383l.3-6.753-3.238 11.135h-2.225l-3.238-11.135.3 6.753v4.383h-3.271V9.701h4.273zM119.314 20.503c-.082 1.847-.601 3.245-1.558 4.194-.957.95-2.307 1.424-4.05 1.424-1.833 0-3.238-.6-4.218-1.802-.972-1.209-1.457-2.93-1.457-5.162v-2.725c0-2.225.504-3.938 1.513-5.14 1.009-1.208 2.411-1.813 4.206-1.813 1.766 0 3.105.493 4.017 1.48.92.986 1.443 2.402 1.569 4.25h-3.282c-.03-1.143-.208-1.93-.535-2.36-.319-.437-.908-.655-1.769-.655-.875 0-1.495.307-1.858.923-.364.608-.557 1.613-.579 3.014v3.06c0 1.609.178 2.714.534 3.315.364.6.983.9 1.859.9.86 0 1.454-.207 1.78-.622.326-.423.512-1.183.556-2.28h3.272zM129.062 22.584H124.6l-.868 3.314h-3.461l5.063-16.196h2.993l5.097 16.197h-3.494l-.868-3.316zm-3.75-2.726h3.026l-1.513-5.773-1.513 5.773zM142.882 9.702h3.272v16.197h-3.272V15.174l-4.774 10.723h-3.282V9.702h3.282v10.734l4.774-10.734zm1.491-4.272c0 .986-.356 1.783-1.068 2.392-.705.608-1.636.912-2.793.912-1.165 0-2.103-.304-2.815-.912-.705-.609-1.057-1.406-1.057-2.392h2.303c0 .46.137.82.412 1.079.282.252.667.378 1.157.378.482 0 .86-.126 1.135-.378.274-.26.412-.62.412-1.08h2.314zM159.262 12.427h-4.006v13.471h-3.283v-13.47h-3.939V9.701h11.228v2.725zM172.237 19.257c0 2.173-.516 3.86-1.547 5.062-1.024 1.201-2.448 1.802-4.273 1.802-1.818 0-3.246-.593-4.284-1.78-1.039-1.194-1.565-2.863-1.58-5.006v-2.77c0-2.225.515-3.96 1.546-5.206 1.032-1.253 2.463-1.88 4.296-1.88 1.802 0 3.223.616 4.262 1.847 1.038 1.223 1.565 2.944 1.58 5.161v2.77zm-3.283-2.714c0-1.461-.208-2.547-.623-3.26-.416-.711-1.061-1.067-1.936-1.067-.868 0-1.51.345-1.925 1.034-.416.682-.631 1.725-.646 3.126v2.881c0 1.417.212 2.462.634 3.137.423.668 1.076 1.002 1.959 1.002.853 0 1.487-.327 1.903-.98.415-.66.627-1.68.634-3.058v-2.815zM174.585 25.898V9.702h5.007c1.691 0 2.975.378 3.85 1.134.883.75 1.324 1.85 1.324 3.304 0 .823-.181 1.532-.545 2.125a3.213 3.213 0 01-1.491 1.302 2.825 2.825 0 011.68 1.256c.393.623.59 1.395.59 2.314 0 1.573-.434 2.76-1.302 3.56-.86.801-2.11 1.201-3.75 1.201h-5.363zm3.271-7.041v4.327h2.092c.586 0 1.031-.181 1.335-.545.305-.363.457-.879.457-1.546 0-1.454-.527-2.199-1.581-2.236h-2.303zm0-2.38h1.703c1.283 0 1.925-.665 1.925-1.992 0-.734-.149-1.26-.445-1.58-.297-.319-.779-.478-1.447-.478h-1.736v4.05z" fill="#212121"/><path fill-rule="evenodd" clip-rule="evenodd" d="M23.726.592a4.56 4.56 0 00-4.495 0L10.74 5.404 2.325 10.35a4.556 4.556 0 00-2.247 3.892L0 24l.078 9.758a4.556 4.556 0 002.247 3.892l8.414 4.946 8.492 4.812c1.394.79 3.101.79 4.495 0l8.492-4.812 8.415-4.946a4.557 4.557 0 002.247-3.892L42.958 24l-.078-9.758a4.557 4.557 0 00-2.247-3.892l-8.415-4.946L23.726.592zm.412 24.52l13.51-7.798a2.278 2.278 0 10-2.28-3.946l-13.364 7.714L8.64 13.368a2.28 2.28 0 00-2.278 3.946l13.219 7.63v14.624a2.279 2.279 0 004.558 0V25.112z" fill="#FF5900"/></svg><svg fill="none" viewBox="0 0 185 48" id="logowhite" xmlns="http://www.w3.org/2000/svg"><g opacity=".3" fill="#fff"><path d="M62.777 34.177l-3.071 5.696c-.244.454-.53.793-.86 1.017-.328.224-.687.335-1.076.335-.303 0-.612-.069-.928-.207l.257-.79c.243.086.46.129.652.129.434 0 .793-.23 1.076-.691l.158-.247-2.785-5.242h1.057l2.242 4.383 2.3-4.383h.978zM68.108 37.504c.467.111.82.312 1.056.602.244.283.365.648.365 1.096 0 .599-.22 1.063-.661 1.392-.435.329-1.07.493-1.906.493h-3.16v-6.91h2.972c.757 0 1.347.154 1.768.464.428.302.642.74.642 1.313 0 .375-.096.694-.287.957a1.66 1.66 0 01-.79.593zm-3.329-.287h1.926c.48 0 .846-.095 1.096-.286.257-.19.385-.47.385-.84 0-.368-.128-.647-.385-.838-.256-.198-.622-.296-1.096-.296H64.78v2.26zm2.163 3.09c1.06 0 1.59-.395 1.59-1.184 0-.395-.135-.685-.405-.87-.263-.19-.658-.285-1.185-.285H64.78v2.34h2.162zM76.196 40.228v.86H71.18v-6.911h4.879v.858h-3.891v2.123h3.466v.84h-3.466v2.23h4.03zM83.396 34.177v6.91h-.968v-6.052h-3.061l-.07 2.024c-.033.955-.112 1.728-.237 2.32-.118.593-.31 1.04-.573 1.343-.263.296-.618.444-1.066.444-.204 0-.412-.026-.622-.079l.069-.878c.105.026.21.04.316.04.283 0 .51-.113.681-.337.172-.23.3-.572.386-1.026.085-.454.141-1.053.167-1.797l.109-2.912h4.869zM85.549 34.177h.977v5.33l4.089-5.33h.908v6.91h-.967v-5.32l-4.099 5.32h-.908v-6.91zM98.601 34.177v6.91h-.977v-2.734c-.731.283-1.406.424-2.025.424-.843 0-1.498-.204-1.965-.612-.461-.408-.691-.99-.691-1.747v-2.241h.967v2.132c0 .513.155.908.465 1.185.316.276.76.414 1.333.414.638 0 1.277-.144 1.916-.434v-3.297h.977zM105.774 40.228v.86h-5.017v-6.911h4.879v.858h-3.891v2.123h3.466v.84h-3.466v2.23h4.029zM113.27 34.177v6.91h-.988v-3.08h-3.97v3.08h-.987v-6.91h.987v2.971h3.97v-2.971h.988zM115.426 34.177h.977v5.33l4.089-5.33h.908v6.91h-.968v-5.32l-4.098 5.32h-.908v-6.91zM128.572 40.228v.86h-5.017v-6.911h4.879v.858h-3.891v2.123h3.466v.84h-3.466v2.23h4.029zM138.73 34.177v6.91h-.968v-6.052h-4.009v6.052h-.978v-6.91h5.955zM143.581 34.177c.896 0 1.6.214 2.114.641.513.428.77 1.017.77 1.768 0 .75-.257 1.339-.77 1.767-.514.428-1.218.641-2.114.641h-1.708v2.093h-.988v-6.91h2.696zm-.029 3.959c.625 0 1.103-.132 1.432-.395.329-.27.494-.655.494-1.155s-.165-.882-.494-1.146c-.329-.27-.807-.404-1.432-.404h-1.679v3.1h1.679zM151.046 41.166c-.698 0-1.327-.151-1.886-.454a3.468 3.468 0 01-1.324-1.273 3.509 3.509 0 01-.474-1.807c0-.665.158-1.267.474-1.807.323-.54.764-.96 1.324-1.263.559-.31 1.188-.464 1.886-.464a3.81 3.81 0 011.876.464c.56.302.998.724 1.314 1.263.316.533.474 1.136.474 1.807s-.158 1.277-.474 1.817a3.415 3.415 0 01-1.314 1.263 3.877 3.877 0 01-1.876.454zm0-.878a2.69 2.69 0 001.363-.346c.408-.23.727-.546.958-.948.237-.408.355-.862.355-1.362 0-.5-.118-.951-.355-1.352a2.486 2.486 0 00-.958-.958 2.692 2.692 0 00-1.363-.346c-.507 0-.968.116-1.383.346-.408.23-.73.55-.967.957a2.662 2.662 0 00-.346 1.353c0 .5.115.954.346 1.362.237.402.559.718.967.948a2.8 2.8 0 001.383.346zM162.7 40.228v2.37h-.918v-1.51h-5.689l-.009 1.51h-.919l.01-2.37h.336c.434-.026.74-.368.918-1.026.178-.665.287-1.6.326-2.804l.069-2.221h4.859v6.051h1.017zm-5.076-3.741c-.033.974-.112 1.78-.237 2.419-.118.638-.313 1.079-.583 1.322h3.901v-5.193h-3.032l-.049 1.452zM168.572 39.36h-3.673l-.761 1.727h-1.017l3.131-6.91h.977l3.141 6.91h-1.037l-.761-1.727zm-.345-.79l-1.491-3.386-1.492 3.386h2.983z"/><path d="M177.042 38.047h-1.314v3.04h-.968v-3.04h-1.323l-1.936 3.04h-1.155l2.281-3.593-2.113-3.317h1.057l1.846 3h1.343v-3h.968v3h1.323l1.857-3h1.057l-2.114 3.337 2.282 3.573h-1.156l-1.935-3.04z"/></g><path d="M70.319 29.881h-3.005V25.9h-7.666v3.97h-3.094l-.178-6.685h1.08c.474-.437.849-1.142 1.123-2.113.275-.972.468-2.244.579-3.816l.456-7.553h9.314v13.482h1.68l-.29 6.697zm-9.347-6.697h4.696V12.427H62.73l-.267 4.46c-.186 2.678-.683 4.777-1.491 6.297zM83.438 19.257c0 2.173-.515 3.86-1.547 5.062-1.023 1.201-2.448 1.802-4.273 1.802-1.817 0-3.245-.593-4.284-1.78-1.038-1.194-1.565-2.863-1.58-5.006v-2.77c0-2.225.516-3.96 1.547-5.206 1.031-1.253 2.463-1.88 4.295-1.88 1.803 0 3.224.616 4.262 1.847 1.039 1.223 1.565 2.944 1.58 5.161v2.77zm-3.282-2.714c0-1.46-.208-2.547-.624-3.26-.415-.711-1.06-1.067-1.936-1.067-.868 0-1.51.345-1.925 1.034-.415.683-.63 1.725-.645 3.126v2.881c0 1.417.211 2.463.634 3.137.423.668 1.076 1.002 1.959 1.002.853 0 1.487-.327 1.902-.98.416-.66.627-1.68.635-3.058v-2.815zM90.06 9.702l3.06 11.714 3.048-11.714h4.273v16.197h-3.282v-4.383l.3-6.753L94.221 25.9h-2.226l-3.238-11.136.3 6.753v4.383h-3.27V9.702h4.272zM119.314 20.503c-.082 1.847-.601 3.245-1.558 4.194-.957.95-2.307 1.424-4.051 1.424-1.832 0-3.238-.6-4.217-1.802-.972-1.209-1.458-2.93-1.458-5.162v-2.725c0-2.225.505-3.938 1.514-5.14 1.008-1.208 2.41-1.813 4.206-1.813 1.765 0 3.104.493 4.017 1.48.92.986 1.443 2.402 1.569 4.25h-3.283c-.03-1.143-.208-1.929-.534-2.36-.319-.437-.909-.655-1.769-.655-.876 0-1.495.307-1.859.923-.363.608-.556 1.613-.578 3.014v3.06c0 1.609.178 2.714.534 3.315.363.6.983.9 1.858.9.861 0 1.454-.207 1.781-.622.326-.423.511-1.183.556-2.28h3.272zM129.061 22.584h-4.462l-.868 3.315h-3.461l5.064-16.197h2.993l5.096 16.197h-3.494l-.868-3.316zm-3.75-2.726h3.027l-1.513-5.773-1.514 5.773zM142.882 9.702h3.271v16.197h-3.271V15.175l-4.774 10.724h-3.283V9.702h3.283v10.735l4.774-10.735zm1.491-4.272c0 .986-.356 1.784-1.068 2.392-.705.608-1.636.912-2.793.912-1.165 0-2.104-.304-2.816-.912-.704-.608-1.057-1.406-1.057-2.392h2.304c0 .46.137.82.411 1.079.282.252.668.378 1.158.378.482 0 .86-.126 1.135-.378.274-.26.411-.62.411-1.08h2.315zM159.261 12.427h-4.005V25.9h-3.283V12.427h-3.939V9.702h11.227v2.725zM172.236 19.257c0 2.173-.515 3.86-1.546 5.062-1.024 1.201-2.449 1.802-4.273 1.802-1.818 0-3.246-.593-4.285-1.78-1.038-1.194-1.565-2.863-1.58-5.006v-2.77c0-2.225.516-3.96 1.547-5.206 1.031-1.253 2.463-1.88 4.295-1.88 1.803 0 3.224.616 4.262 1.847 1.039 1.223 1.565 2.944 1.58 5.161v2.77zm-3.282-2.714c0-1.46-.208-2.547-.624-3.26-.415-.711-1.06-1.067-1.936-1.067-.868 0-1.509.345-1.925 1.034-.415.683-.63 1.725-.645 3.126v2.881c0 1.417.211 2.463.634 3.137.423.668 1.076 1.002 1.959 1.002.853 0 1.487-.327 1.902-.98.416-.66.627-1.68.635-3.058v-2.815zM174.584 25.899V9.702h5.008c1.691 0 2.974.378 3.85 1.134.882.75 1.324 1.85 1.324 3.304 0 .823-.182 1.532-.545 2.125a3.223 3.223 0 01-1.491 1.302 2.826 2.826 0 011.68 1.256c.393.623.59 1.395.59 2.314 0 1.573-.434 2.76-1.302 3.56-.861.801-2.111 1.202-3.75 1.202h-5.364zm3.272-7.042v4.327h2.092c.586 0 1.031-.181 1.335-.545.304-.363.456-.879.456-1.546 0-1.454-.527-2.199-1.58-2.236h-2.303zm0-2.38h1.702c1.284 0 1.925-.664 1.925-1.992 0-.734-.148-1.26-.445-1.58-.297-.319-.779-.478-1.446-.478h-1.736v4.05z" fill="#fff"/><path fill-rule="evenodd" clip-rule="evenodd" d="M23.726.592a4.56 4.56 0 00-4.495 0L10.74 5.404 2.325 10.35a4.556 4.556 0 00-2.247 3.892L0 24l.078 9.758a4.556 4.556 0 002.247 3.892l8.414 4.946 8.492 4.812c1.394.79 3.101.79 4.495 0l8.492-4.812 8.415-4.946a4.557 4.557 0 002.247-3.892L42.958 24l-.078-9.758a4.557 4.557 0 00-2.247-3.892l-8.415-4.946L23.726.592zm.412 24.52l13.51-7.798a2.278 2.278 0 10-2.28-3.946l-13.364 7.714L8.64 13.368a2.28 2.28 0 00-2.278 3.946l13.219 7.63v14.624a2.279 2.279 0 004.558 0V25.112z" fill="#fff"/></svg><svg fill="none" viewBox="0 0 20 20" id="phone" xmlns="http://www.w3.org/2000/svg"><g clip-path="url(#cclip0_1018_194)"><path d="M18.333 14.1v2.5a1.667 1.667 0 01-1.816 1.667 16.492 16.492 0 01-7.192-2.559 16.25 16.25 0 01-5-5 16.492 16.492 0 01-2.558-7.225 1.667 1.667 0 011.658-1.816h2.5A1.667 1.667 0 017.592 3.1c.105.8.301 1.586.583 2.342A1.667 1.667 0 017.8 7.2L6.742 8.258a13.333 13.333 0 005 5L12.8 12.2a1.666 1.666 0 011.758-.375c.757.282 1.542.478 2.342.583a1.667 1.667 0 011.433 1.692z"/></g><defs><clipPath id="cclip0_1018_194"><path fill="#fff" d="M0 0h20v20H0z"/></clipPath></defs></svg><svg fill="none" viewBox="0 0 24 24" id="search" xmlns="http://www.w3.org/2000/svg"><path d="M11 19a8 8 0 100-16 8 8 0 000 16zM21 21l-4.35-4.35"/></svg><svg viewBox="0 0 40 40" id="telegram" xmlns="http://www.w3.org/2000/svg"><path d="M26.54 29.174l3.281-15.469c.134-.654.056-1.123-.234-1.406-.29-.283-.673-.335-1.15-.156L9.152 19.576c-.432.164-.726.35-.882.558-.156.208-.175.405-.056.591.12.186.357.331.715.436l4.933 1.54 11.45-7.21c.313-.208.551-.253.715-.134.104.075.074.186-.09.335l-9.263 8.37-.357 5.09c.342 0 .677-.164 1.004-.491l2.411-2.322 5 3.683c.953.536 1.555.253 1.808-.848zM40 20c0 2.708-.528 5.298-1.585 7.768-1.056 2.47-2.477 4.598-4.263 6.384-1.786 1.785-3.914 3.207-6.384 4.263A19.552 19.552 0 0120 40c-2.708 0-5.298-.528-7.768-1.585-2.47-1.056-4.598-2.477-6.384-4.263-1.785-1.786-3.207-3.914-4.263-6.384A19.552 19.552 0 010 20c0-2.708.528-5.298 1.585-7.768 1.056-2.47 2.478-4.598 4.263-6.384 1.786-1.785 3.914-3.207 6.384-4.263A19.552 19.552 0 0120 0c2.708 0 5.298.528 7.768 1.585 2.47 1.056 4.598 2.478 6.384 4.263 1.785 1.786 3.207 3.914 4.263 6.384A19.552 19.552 0 0140 20z"/></svg><svg viewBox="0 0 40 40" id="vk" xmlns="http://www.w3.org/2000/svg"><path d="M26.139 0H13.86C2.655 0 0 2.656 0 13.861V26.14c0 11.205 2.656 13.861 13.861 13.861H26.14C37.344 40.001 40 37.345 40 26.14V13.861C40 2.656 37.318 0 26.14 0zm6.152 28.535h-2.903c-1.1 0-1.439-.872-3.418-2.878-1.718-1.666-2.48-1.887-2.903-1.887-.6 0-.77.169-.77.99v2.624c0 .703-.22 1.126-2.083 1.126-3.08 0-6.497-1.863-8.894-5.333-3.613-5.084-4.602-8.893-4.602-9.68 0-.425.169-.82.982-.82h2.91c.737 0 1.017.338 1.303 1.126 1.438 4.153 3.835 7.792 4.823 7.792.366 0 .534-.169.534-1.1v-4.29c-.111-1.979-1.152-2.149-1.152-2.851 0-.339.28-.678.729-.678h4.576c.619 0 .846.339.846 1.068v5.787c0 .625.28.847.449.847.365 0 .677-.222 1.354-.9 2.09-2.343 3.587-5.957 3.587-5.957.195-.424.534-.82 1.27-.82h2.91c.873 0 1.068.449.873 1.074-.366 1.692-3.927 6.719-3.927 6.719-.306.507-.424.729 0 1.295.313.423 1.329 1.302 2.005 2.09 1.244 1.412 2.2 2.597 2.455 3.417.287.814-.136 1.238-.957 1.238l.004.001z"/></svg></svg>